<svg width="38" height="38" viewBox="0 0 38 38" fill="none" xmlns="http://www.w3.org/2000/svg">
  <path d="M10.5 12.5h17a5 5 0 0 1 4.83 3.8l1.9 7.4A3.2 3.2 0 0 1 31.2 28l-2.9-2.7a2 2 0 0 0-1.4-.6H11.1a2 2 0 0 0-1.4.6L6.8 28A3.2 3.2 0 0 1 3.27 23.7l1.9-7.4A5 5 0 0 1 10.5 12.5z" stroke="currentColor" stroke-width="1.5" stroke-linejoin="round"/>
  <circle cx="13" cy="19" r="2.3" stroke="currentColor" stroke-width="1.5"/>
  <circle cx="25" cy="19.5" r="1.3" stroke="currentColor" stroke-width="1.4"/>
  <path d="M28.5 16v4M26.5 18h4" stroke="currentColor" stroke-width="1.3" stroke-linecap="round"/>
</svg>
